<svg width="26" height="26" viewBox="0 0 26 26" fill="none" xmlns="http://www.w3.org/2000/svg">
<path d="M13 25C14.5762 25.002 16.1372 24.6926 17.5934 24.0894C19.0495 23.4862 20.3721 22.6012 21.4852 21.4852C22.6012 20.3721 23.4862 19.0495 24.0894 17.5934C24.6926 16.1372 25.002 14.5762 25 13C25.002 11.4238 24.6925 9.86283 24.0893 8.40666C23.4861 6.95049 22.6011 5.62787 21.4852 4.51481C20.3721 3.39882 19.0495 2.51381 17.5934 1.91062C16.1372 1.30743 14.5762 0.997968 13 1.00001C11.4238 0.998001 9.86283 1.30748 8.40666 1.91067C6.95049 2.51385 5.62787 3.39885 4.51481 4.51481C3.39885 5.62787 2.51385 6.95049 1.91067 8.40666C1.30748 9.86283 0.998001 11.4238 1.00001 13C0.997968 14.5762 1.30743 16.1372 1.91062 17.5934C2.51381 19.0495 3.39882 20.3721 4.51481 21.4852C5.62787 22.6011 6.95049 23.4861 8.40666 24.0893C9.86283 24.6925 11.4238 25.002 13 25V25Z" stroke="#F6A405" stroke-width="2" stroke-linejoin="round"/>
<path fill-rule="evenodd" clip-rule="evenodd" d="M13 20.2C13.3183 20.2 13.6235 20.0736 13.8486 19.8485C14.0736 19.6235 14.2 19.3183 14.2 19C14.2 18.6818 14.0736 18.3765 13.8486 18.1515C13.6235 17.9264 13.3183 17.8 13 17.8C12.6818 17.8 12.3766 17.9264 12.1515 18.1515C11.9265 18.3765 11.8 18.6818 11.8 19C11.8 19.3183 11.9265 19.6235 12.1515 19.8485C12.3766 20.0736 12.6818 20.2 13 20.2Z" fill="#F6A405"/>
<path d="M13 5.80005V15.4" stroke="#F6A405" stroke-width="2" stroke-linecap="round" stroke-linejoin="round"/>
</svg>
