<svg width="64" height="64" viewBox="0 0 64 64" fill="none" xmlns="http://www.w3.org/2000/svg">
<g filter="url(#filter0_d_86_546)">
<circle cx="32" cy="22" r="17" fill="white"/>
</g>
<path d="M37.9905 30.1141C36.8329 31.2721 35.5556 31.0916 34.3381 30.5456C33.0438 29.9886 31.8605 29.9533 30.4935 30.5456C28.7912 31.303 27.8877 31.0828 26.8625 30.1141C21.0742 23.9714 21.9285 14.6143 28.5071 14.262C30.1026 14.3501 31.2197 15.1713 32.1595 15.2395C33.5564 14.9467 34.8935 14.1079 36.3886 14.218C38.1849 14.3677 39.5284 15.0986 40.4254 16.413C36.7303 18.7028 37.6061 23.7226 41 25.1317C40.3208 26.9701 39.4493 28.7865 37.9884 30.1295L37.9905 30.1141ZM32.0314 14.196C31.8583 11.4659 34.0049 9.22017 36.474 9C36.8136 12.1484 33.6974 14.5042 32.0314 14.196Z" fill="black"/>
<defs>
<filter id="filter0_d_86_546" x="0" y="0" width="64" height="64" filterUnits="userSpaceOnUse" color-interpolation-filters="sRGB">
<feFlood flood-opacity="0" result="BackgroundImageFix"/>
<feColorMatrix in="SourceAlpha" type="matrix" values="0 0 0 0 0 0 0 0 0 0 0 0 0 0 0 0 0 0 127 0" result="hardAlpha"/>
<feOffset dy="10"/>
<feGaussianBlur stdDeviation="7.5"/>
<feComposite in2="hardAlpha" operator="out"/>
<feColorMatrix type="matrix" values="0 0 0 0 0 0 0 0 0 0 0 0 0 0 0 0 0 0 0.1 0"/>
<feBlend mode="normal" in2="BackgroundImageFix" result="effect1_dropShadow_86_546"/>
<feBlend mode="normal" in="SourceGraphic" in2="effect1_dropShadow_86_546" result="shape"/>
</filter>
</defs>
</svg>
