<svg width="15" height="15" viewBox="0 0 15 15" fill="none" xmlns="http://www.w3.org/2000/svg">
<path fill-rule="evenodd" clip-rule="evenodd" d="M0.294404 0.292893C-0.0961207 0.683417 -0.0961205 1.31658 0.294404 1.70711L5.95058 7.36328L0.292893 13.021C-0.0976311 13.4115 -0.0976311 14.0447 0.292893 14.4352C0.683417 14.8257 1.31658 14.8257 1.70711 14.4352L7.36479 8.77749L13.0223 14.435C13.4128 14.8256 14.046 14.8256 14.4365 14.435C14.8271 14.0445 14.8271 13.4113 14.4365 13.0208L8.77901 7.36328L14.435 1.70726C14.8256 1.31673 14.8256 0.683568 14.435 0.293044C14.0445 -0.09748 13.4113 -0.0974799 13.0208 0.293044L7.36479 5.94907L1.70862 0.292893C1.31809 -0.0976311 0.684928 -0.0976311 0.294404 0.292893Z" fill="#F6A405"/>
</svg>
