<svg width="31" height="31" viewBox="0 0 31 31" fill="none" xmlns="http://www.w3.org/2000/svg">
<path d="M13.5 7L12.4508 6.5803C11.4924 6.19696 10.4697 6 9.43749 6H8.75631C7.29841 6 5.88665 6.51113 4.76665 7.44446V7.44446C3.9365 8.13625 3.30049 9.03202 2.92106 10.0438L2.75455 10.4879C2.26806 11.7852 2.26806 13.2148 2.75455 14.5121V14.5121C3.23554 15.7948 4.1601 16.8627 5.36068 17.5224L7 18.4231M13.5 7L13.8846 18.4231M13.5 7L15.4847 6.81957C17.8185 6.60741 20.115 6.09455 22.3172 5.29373L23.0249 5.0364C24.0065 4.67945 24.9559 4.23947 25.8628 3.72125L27.1448 2.98867C27.7124 2.66434 28.2342 2.26578 28.6965 1.80354V1.80354C28.993 1.50702 29.5 1.71703 29.5 2.13638V4.5V17.5V21.3206C29.5 21.8066 28.9453 22.0839 28.5565 21.7924V21.7924C27.8558 21.2668 27.0836 20.8439 26.2634 20.5363L23.5 19.5L21.9913 19.0885C19.3532 18.369 16.6048 18.1434 13.8846 18.4231V18.4231M7 18.4231H13.8846M7 18.4231V18.601C7 21.5226 7.35832 24.4333 8.06693 27.2677V27.2677C8.32145 28.2858 9.2362 29 10.2856 29H12.541C13.8119 29 14.7639 27.8356 14.5113 26.5901V26.5901C14.0945 24.5352 13.8846 22.4437 13.8846 20.347V18.4231" stroke="#F6A405" stroke-width="3"/>
</svg>
