<svg width="16" height="16" viewBox="0 0 16 16" fill="none" xmlns="http://www.w3.org/2000/svg">
<circle cx="7.82629" cy="8.125" r="7.41675" fill="white"/>
<path d="M4.3969 6.04203C4.02509 5.67023 4.02509 5.06741 4.3969 4.6956C4.7687 4.3238 5.37152 4.3238 5.74333 4.6956L11.129 10.0813C11.5009 10.4531 11.5009 11.0559 11.129 11.4278C10.7572 11.7996 10.1544 11.7996 9.78262 11.4278L4.3969 6.04203Z" fill="#F6A405"/>
<path d="M9.90951 4.7047C10.2813 4.33289 10.8841 4.33289 11.2559 4.7047C11.6277 5.0765 11.6277 5.67932 11.2559 6.05113L5.87022 11.4368C5.49841 11.8087 4.89559 11.8087 4.52379 11.4368C4.15198 11.065 4.15198 10.4622 4.52379 10.0904L9.90951 4.7047Z" fill="#F6A405"/>
</svg>
