<svg width="20" height="20" viewBox="0 0 20 20" fill="none" xmlns="http://www.w3.org/2000/svg">
<circle cx="10" cy="10" r="10" fill="#F6A405"/>
<path fill-rule="evenodd" clip-rule="evenodd" d="M12.1083 5.36389C12.5935 4.8787 13.3801 4.8787 13.8653 5.36389L14.6361 6.13473C15.1213 6.6199 15.1213 7.40654 14.6361 7.89173L8.52382 14.004C8.37452 14.1533 8.18964 14.2621 7.98663 14.3201L5.67874 14.9795C5.49281 15.0327 5.2927 14.9808 5.15597 14.844C5.01923 14.7073 4.96738 14.5072 5.0205 14.3213L5.6799 12.0134C5.7379 11.8104 5.84669 11.6255 5.99598 11.4762L12.1083 5.36389ZM13.1123 6.11689C13.043 6.04758 12.9306 6.04758 12.8613 6.11689L11.9649 7.01322L12.9868 8.03506L13.8832 7.13873C13.9525 7.06941 13.9525 6.95704 13.8832 6.88773L13.1123 6.11689ZM12.2338 8.78806L11.212 7.76622L6.74899 12.2292C6.72766 12.2505 6.71212 12.2769 6.70383 12.3059L6.30772 13.6923L7.69408 13.2961C7.72308 13.2879 7.74949 13.2724 7.77082 13.251L12.2338 8.78806Z" fill="white"/>
</svg>
