<svg width="100" height="100" viewBox="0 0 100 100" fill="none" xmlns="http://www.w3.org/2000/svg">
<rect width="100" height="100" rx="50" fill="#F6F4F0"/>
<path fill-rule="evenodd" clip-rule="evenodd" d="M37.2826 40.9243C37.1025 40.9243 36.9565 41.0679 36.9565 41.2451V61.1299C36.9565 61.3071 37.1025 61.4507 37.2826 61.4507H41.4278L52.6082 49.8754C53.4922 48.9602 54.9695 48.9415 55.8771 49.8342L63.0435 56.8827V41.2451C63.0435 41.0679 62.8975 40.9243 62.7174 40.9243H37.2826ZM62.7174 63.375H41.8484H41.8469H37.2826C36.022 63.375 35 62.3698 35 61.1299V41.2451C35 40.0051 36.022 39 37.2826 39H62.7174C63.978 39 65 40.0051 65 41.2451V61.1299C65 62.3698 63.978 63.375 62.7174 63.375ZM54.0267 51.2008L44.1265 61.4507H62.7174C62.8975 61.4507 63.0435 61.3071 63.0435 61.1299V59.6041L54.4937 51.1949C54.364 51.0674 54.153 51.0701 54.0267 51.2008ZM46.087 47.6596C46.087 48.8995 45.065 49.9047 43.8044 49.9047C42.5437 49.9047 41.5217 48.8995 41.5217 47.6596C41.5217 46.4197 42.5437 45.4145 43.8044 45.4145C45.065 45.4145 46.087 46.4197 46.087 47.6596ZM48.0435 47.6596C48.0435 49.9623 46.1456 51.829 43.8044 51.829C41.4631 51.829 39.5652 49.9623 39.5652 47.6596C39.5652 45.3569 41.4631 43.4902 43.8044 43.4902C46.1456 43.4902 48.0435 45.3569 48.0435 47.6596Z" fill="#F6A405"/>
</svg>
