<svg width="100" height="100" viewBox="0 0 100 100" fill="none" xmlns="http://www.w3.org/2000/svg">
<rect width="100" height="100" rx="50" fill="#F6F4F0"/>
<path fill-rule="evenodd" clip-rule="evenodd" d="M53.2265 47.5714C54.0859 46.712 54.5687 45.5464 54.5687 44.331C54.5687 43.1156 54.0859 41.9499 53.2265 41.0905C52.3671 40.2311 51.2014 39.7483 49.986 39.7483C48.7706 39.7483 47.605 40.2311 46.7455 41.0905C45.8861 41.9499 45.4033 43.1156 45.4033 44.331C45.4033 45.5464 45.8861 46.712 46.7455 47.5714C47.605 48.4309 48.7706 48.9137 49.986 48.9137C51.2014 48.9137 52.3671 48.4309 53.2265 47.5714ZM57.0632 46.2468C56.6696 47.7012 55.8378 48.9992 54.6805 49.964C56.4854 50.8169 58.0243 52.1446 59.1326 53.8049C60.2407 55.4653 60.8765 58.7078 60.9718 60.7018C60.9783 60.7952 60.9751 60.8888 60.9626 60.9812C60.9851 61.08 60.997 61.1828 60.997 61.2884C60.997 62.0477 60.3815 62.6632 59.6222 62.6632H40.3748C39.6155 62.6632 39 62.0477 39 61.2884C39 61.1935 39.0096 61.1008 39.0279 61.0114C39.0072 60.9103 38.9978 60.8065 39.0004 60.7018C39.0955 58.708 39.7309 55.4657 40.8387 53.8053C41.9466 52.145 43.4851 50.8172 45.2896 49.964C44.1324 48.9992 43.3005 47.7012 42.9071 46.2468C42.5137 44.7923 42.5779 43.252 43.091 41.8354C43.6041 40.4187 44.5412 39.1945 45.7747 38.3293C47.0082 37.4642 48.4784 37 49.9851 37C51.4918 37 52.9619 37.4642 54.1955 38.3293C55.429 39.1945 56.3661 40.4187 56.8791 41.8354C57.3922 43.252 57.4566 44.7923 57.0632 46.2468ZM41.8309 59.9136H58.1413C57.8681 57.851 57.0067 55.2039 55.6798 53.9382C54.1455 52.4745 52.1064 51.6579 49.986 51.6579C47.8656 51.6579 45.8266 52.4745 44.2923 53.9382C42.9653 55.2039 42.1041 57.851 41.8309 59.9136Z" fill="#F6A405"/>
</svg>
