<svg width="64" height="64" viewBox="0 0 64 64" fill="none" xmlns="http://www.w3.org/2000/svg">
<g filter="url(#filter0_d_86_562)">
<circle cx="32" cy="22" r="17" fill="white"/>
</g>
<path d="M42.5325 22.2475C42.5325 21.5234 42.4683 20.8359 42.3583 20.1667H32V24.3009H37.9308C37.665 25.6575 36.8858 26.8034 35.7308 27.5825V30.3325H39.2692C41.3408 28.4167 42.5325 25.5934 42.5325 22.2475Z" fill="#4285F4"/>
<path d="M32 33C34.97 33 37.4542 32.01 39.2692 30.3325L35.7308 27.5825C34.7408 28.2425 33.485 28.6458 32 28.6458C29.1308 28.6458 26.7017 26.7117 25.8308 24.0992H22.1825V26.9317C23.9883 30.525 27.7008 33 32 33Z" fill="#34A853"/>
<path d="M25.8308 24.0993C25.6017 23.4393 25.4825 22.7334 25.4825 22.0001C25.4825 21.2668 25.6108 20.5609 25.8308 19.9009V17.0684H22.1825C21.4308 18.5534 21 20.2218 21 22.0001C21 23.7784 21.4308 25.4468 22.1825 26.9318L25.8308 24.0993Z" fill="#FBBC05"/>
<path d="M32 15.3542C33.6225 15.3542 35.0708 15.9133 36.2167 17.0042L39.3517 13.8692C37.4542 12.0908 34.97 11 32 11C27.7008 11 23.9883 13.475 22.1825 17.0683L25.8308 19.9008C26.7017 17.2883 29.1308 15.3542 32 15.3542Z" fill="#EA4335"/>
<defs>
<filter id="filter0_d_86_562" x="0" y="0" width="64" height="64" filterUnits="userSpaceOnUse" color-interpolation-filters="sRGB">
<feFlood flood-opacity="0" result="BackgroundImageFix"/>
<feColorMatrix in="SourceAlpha" type="matrix" values="0 0 0 0 0 0 0 0 0 0 0 0 0 0 0 0 0 0 127 0" result="hardAlpha"/>
<feOffset dy="10"/>
<feGaussianBlur stdDeviation="7.5"/>
<feComposite in2="hardAlpha" operator="out"/>
<feColorMatrix type="matrix" values="0 0 0 0 0 0 0 0 0 0 0 0 0 0 0 0 0 0 0.1 0"/>
<feBlend mode="normal" in2="BackgroundImageFix" result="effect1_dropShadow_86_562"/>
<feBlend mode="normal" in="SourceGraphic" in2="effect1_dropShadow_86_562" result="shape"/>
</filter>
</defs>
</svg>
