<svg width="20" height="18" viewBox="0 0 20 18" fill="none" xmlns="http://www.w3.org/2000/svg">
<path d="M4.16675 6.5L4.16675 11.7C4.16675 13.3802 4.16675 14.2202 4.49373 14.862C4.78135 15.4265 5.24029 15.8854 5.80478 16.173C6.44651 16.5 7.28659 16.5 8.96675 16.5L11.0334 16.5C12.7136 16.5 13.5537 16.5 14.1954 16.173C14.7599 15.8854 15.2188 15.4265 15.5064 14.862C15.8334 14.2202 15.8334 13.3802 15.8334 11.7L15.8334 6.5" stroke="#F6A405" stroke-width="1.5" stroke-linecap="round" stroke-linejoin="round"/>
<path d="M1.66675 9L7.73734 2.9294C8.52938 2.13737 8.92539 1.74136 9.38205 1.59298C9.78374 1.46246 10.2164 1.46246 10.6181 1.59298C11.0748 1.74136 11.4708 2.13737 12.2628 2.92941L18.3334 9" stroke="#F6A405" stroke-width="1.5" stroke-linecap="round" stroke-linejoin="round"/>
</svg>
