<svg width="34" height="31" viewBox="0 0 34 31" fill="none" xmlns="http://www.w3.org/2000/svg">
<path fill-rule="evenodd" clip-rule="evenodd" d="M16.0516 3.60689C16.5118 3.45736 17.0075 3.45736 17.4677 3.60689C17.6449 3.66447 17.8772 3.78812 18.2797 4.12988C18.6946 4.48206 19.1934 4.97932 19.9353 5.7213L26.0779 11.8638V20.8264C26.0779 22.389 26.0768 23.4783 26.0075 24.3263C25.9395 25.1583 25.8128 25.6363 25.6283 25.9984C25.2329 26.7744 24.6019 27.4054 23.8259 27.8008C23.4638 27.9853 22.9858 28.112 22.1538 28.18C21.3058 28.2493 20.2165 28.2504 18.6539 28.2504H14.8655C13.3029 28.2504 12.2136 28.2493 11.3655 28.18C10.5335 28.112 10.0555 27.9853 9.69347 27.8008C8.9174 27.4054 8.28644 26.7744 7.89102 25.9984C7.70654 25.6363 7.57981 25.1583 7.51184 24.3263C7.44255 23.4783 7.44148 22.389 7.44148 20.8264V11.8638L13.584 5.72129C14.326 4.97932 14.8248 4.48206 15.2396 4.12988C15.6422 3.78812 15.8744 3.66447 16.0516 3.60689ZM5.08825 10.3285L0.511805 14.9049C-0.0250938 15.4418 -0.0250939 16.3123 0.511805 16.8492C1.0487 17.3861 1.91919 17.3861 2.45609 16.8492L4.69185 14.6135L4.69185 20.8852C4.69183 22.3752 4.69182 23.577 4.77134 24.5502C4.85321 25.5523 5.02618 26.4324 5.44108 27.2467C6.10012 28.5401 7.15172 29.5917 8.44516 30.2508C9.25945 30.6657 10.1396 30.8386 11.1416 30.9205C12.1148 31 13.3166 31 14.8066 31H14.8066H18.7128H18.7128C20.2028 31 21.4045 31 22.3777 30.9205C23.3798 30.8386 24.2599 30.6657 25.0742 30.2508C26.3676 29.5917 27.4192 28.5401 28.0783 27.2467C28.4932 26.4324 28.6661 25.5523 28.748 24.5502C28.8275 23.577 28.8275 22.3752 28.8275 20.8852V20.8852V14.6135L31.0633 16.8492C31.6002 17.3861 32.4706 17.3861 33.0075 16.8492C33.5444 16.3123 33.5444 15.4418 33.0075 14.9049L28.4311 10.3284C28.4269 10.3243 28.4227 10.3201 28.4186 10.3159L21.8402 3.73755C21.1478 3.04518 20.5699 2.46727 20.0592 2.03373C19.5266 1.58156 18.9773 1.20625 18.3174 0.991841C17.305 0.662876 16.2144 0.662876 15.2019 0.991841C14.542 1.20625 13.9927 1.58156 13.4601 2.03373C12.9494 2.46727 12.3715 3.04518 11.6792 3.73756L5.10084 10.3159C5.09662 10.3201 5.09242 10.3243 5.08825 10.3285Z" fill="#A1A1A1"/>
</svg>
