<svg width="19" height="19" viewBox="0 0 19 19" fill="none" xmlns="http://www.w3.org/2000/svg">
<path fill-rule="evenodd" clip-rule="evenodd" d="M9.18844 0C6.69322 0 6.38007 0.0109104 5.40005 0.0555089C4.42195 0.100299 3.75431 0.255149 3.17013 0.482353C2.56585 0.717021 2.05325 1.03093 1.54257 1.54181C1.03151 2.05249 0.717595 2.56508 0.482161 3.16917C0.254384 3.75355 0.0993417 4.42137 0.0553174 5.3991C0.0114846 6.37911 0 6.69245 0 9.18767C0 11.6829 0.0111017 11.9951 0.0555089 12.9751C0.10049 13.9532 0.255341 14.6208 0.482353 15.205C0.717213 15.8093 1.03112 16.3219 1.542 16.8326C2.05249 17.3436 2.56508 17.6583 3.16898 17.893C3.75355 18.1202 4.42138 18.275 5.39929 18.3198C6.37931 18.3644 6.69226 18.3753 9.18729 18.3753C11.6827 18.3753 11.9949 18.3644 12.9749 18.3198C13.953 18.275 14.6214 18.1202 15.206 17.893C15.8101 17.6583 16.3219 17.3436 16.8324 16.8326C17.3435 16.3219 17.6574 15.8093 17.8928 15.2052C18.1187 14.6208 18.2737 13.953 18.3196 12.9753C18.3637 11.9953 18.3752 11.6829 18.3752 9.18767C18.3752 6.69245 18.3637 6.37931 18.3196 5.39929C18.2737 4.42118 18.1187 3.75355 17.8928 3.16936C17.6574 2.56508 17.3435 2.05249 16.8324 1.54181C16.3213 1.03074 15.8103 0.71683 15.2054 0.482353C14.6197 0.255149 13.9517 0.100299 12.9736 0.0555089C11.9935 0.0109104 11.6816 0 9.18557 0H9.18844ZM8.88091 1.65492H8.88097L9.18719 1.65501C11.6403 1.65501 11.931 1.66381 12.8998 1.70784C13.7956 1.7488 14.2818 1.89848 14.6056 2.02424C15.0344 2.19076 15.3401 2.38983 15.6614 2.7114C15.983 3.03297 16.1821 3.33922 16.349 3.76798C16.4747 4.09146 16.6246 4.57764 16.6654 5.47344C16.7094 6.44198 16.719 6.73292 16.719 9.18488C16.719 11.6368 16.7094 11.9278 16.6654 12.8963C16.6244 13.7921 16.4747 14.2783 16.349 14.6018C16.1824 15.0305 15.983 15.3358 15.6614 15.6572C15.3399 15.9788 15.0346 16.1778 14.6056 16.3444C14.2821 16.4707 13.7956 16.62 12.8998 16.661C11.9312 16.705 11.6403 16.7146 9.18719 16.7146C6.73389 16.7146 6.44314 16.705 5.4746 16.661C4.5788 16.6196 4.09262 16.4699 3.76857 16.3442C3.33981 16.1777 3.03355 15.9786 2.71198 15.657C2.39041 15.3355 2.19135 15.03 2.02444 14.601C1.89868 14.2775 1.74881 13.7913 1.70804 12.8955C1.66401 11.927 1.65521 11.6361 1.65521 9.18258C1.65521 6.72909 1.66401 6.43968 1.70804 5.47114C1.749 4.57535 1.89868 4.08917 2.02444 3.7653C2.19097 3.33654 2.39041 3.03029 2.71198 2.70872C3.03355 2.38715 3.33981 2.18808 3.76857 2.02117C4.09243 1.89484 4.5788 1.74554 5.4746 1.70439C6.32216 1.66611 6.65062 1.65462 8.36298 1.65271V1.65501C8.52297 1.65476 8.69507 1.65483 8.8808 1.65492H8.88086H8.88091ZM12.9899 4.28313C12.9899 3.67425 13.4837 3.18099 14.0924 3.18099V3.18061C14.7011 3.18061 15.1949 3.67445 15.1949 4.28313C15.1949 4.89181 14.7011 5.38565 14.0924 5.38565C13.4837 5.38565 12.9899 4.89181 12.9899 4.28313ZM9.18802 4.46895C6.58244 4.46905 4.46996 6.5816 4.46996 9.1872C4.46996 11.7929 6.58255 13.9045 9.18821 13.9045C11.7939 13.9045 13.9057 11.7929 13.9057 9.1872C13.9057 6.58154 11.7937 4.46895 9.18802 4.46895ZM12.2522 9.18764C12.2522 7.49615 10.881 6.12508 9.18968 6.12508C7.4982 6.12508 6.12713 7.49615 6.12713 9.18764C6.12713 10.8789 7.4982 12.2502 9.18968 12.2502C10.881 12.2502 12.2522 10.8789 12.2522 9.18764Z" fill="#F6A405"/>
</svg>
