<svg width="36" height="36" viewBox="0 0 36 36" fill="none" xmlns="http://www.w3.org/2000/svg">
<circle cx="18" cy="18" r="18" fill="white"/>
<circle cx="18" cy="18" r="13.5" fill="white" stroke="#E3E3E3" stroke-width="3"/>
<path fill-rule="evenodd" clip-rule="evenodd" d="M26.6863 26.2793C28.7394 24.1259 29.9999 21.2102 29.9999 18H32.9999C32.9999 19.0126 32.8974 20.0175 32.6969 21C32.3098 22.896 31.5576 24.7088 30.472 26.3336C28.8237 28.8003 26.4811 30.7229 23.7402 31.8582C20.9993 32.9935 17.9833 33.2906 15.0736 32.7118C13.157 32.3306 11.3433 31.5806 9.72892 30.5136C8.89236 29.9607 8.10934 29.3226 7.39331 28.6066L9.51463 26.4853C11.6681 28.6387 14.6362 29.9775 17.9171 29.9997C17.9681 30.0001 18.0192 30.0001 18.0702 29.9998C21.3043 29.9812 24.2353 28.6833 26.3828 26.5865C26.4858 26.4859 26.587 26.3835 26.6863 26.2793Z" fill="#F6A405"/>
</svg>
