<svg width="15" height="11" viewBox="0 0 15 11" fill="none" xmlns="http://www.w3.org/2000/svg">
<path fill-rule="evenodd" clip-rule="evenodd" d="M14.7254 0.275784C14.9012 0.452591 15 0.692278 15 0.942174C15 1.19207 14.9012 1.43174 14.7254 1.60856L5.64825 10.7243C5.47218 10.9008 5.23352 11 4.98468 11C4.73584 11 4.49717 10.9008 4.32111 10.7243L0.252028 6.63792C0.0861597 6.45915 -0.00413631 6.22272 0.000145616 5.9784C0.00444006 5.7341 0.102987 5.50102 0.27504 5.32824C0.447081 5.15546 0.679194 5.0565 0.922462 5.05219C1.16573 5.04787 1.40116 5.13857 1.57917 5.30514L4.98468 8.7251L13.3983 0.275784C13.5743 0.0991912 13.813 0 14.0619 0C14.3106 0 14.5494 0.0991912 14.7254 0.275784Z" fill="white"/>
</svg>
