<svg width="15" height="17" viewBox="0 0 15 17" fill="none" xmlns="http://www.w3.org/2000/svg">
<path fill-rule="evenodd" clip-rule="evenodd" d="M1.74443 15.3509L6.68362 14.5101L6.68362 9.3224C6.68362 8.88109 7.04912 8.52333 7.5 8.52333C7.95087 8.52333 8.31638 8.88109 8.31638 9.3224L8.31638 14.5101L13.2555 15.3509L7.5 2.20605L1.74443 15.3509ZM7.5 15.9933L1.71005 16.9788C1.24198 17.0585 0.763575 16.9103 0.427629 16.5815C0.00552782 16.1683 -0.117071 15.5452 0.118079 15.0082L6.37031 0.729067C6.56399 0.286812 7.00834 8.35736e-08 7.5 8.94366e-08C7.99166 9.52996e-08 8.43602 0.286812 8.6297 0.729067L14.8819 15.0082C15.1171 15.5452 14.9944 16.1683 14.5724 16.5815C14.2364 16.9103 13.758 17.0585 13.2899 16.9788L7.5 15.9933Z" fill="white"/>
</svg>
