<svg width="17" height="19" viewBox="0 0 17 19" fill="none" xmlns="http://www.w3.org/2000/svg">
<path fill-rule="evenodd" clip-rule="evenodd" d="M2.74443 16.3509L7.68362 15.5101L7.68362 10.3224C7.68362 9.88109 8.04912 9.52333 8.5 9.52333C8.95087 9.52333 9.31638 9.88109 9.31638 10.3224L9.31638 15.5101L14.2555 16.3509L8.5 3.20605L2.74443 16.3509ZM8.5 16.9933L2.71005 17.9788C2.24198 18.0585 1.76357 17.9103 1.42763 17.5815C1.00553 17.1683 0.882929 16.5452 1.11808 16.0082L7.37031 1.72907C7.56399 1.28681 8.00834 1 8.5 1C8.99166 1 9.43602 1.28681 9.6297 1.72907L15.8819 16.0082C16.1171 16.5452 15.9944 17.1683 15.5724 17.5815C15.2364 17.9103 14.758 18.0585 14.2899 17.9788L8.5 16.9933Z" fill="#F6A405" stroke="white" stroke-width="0.2"/>
</svg>
