<svg width="23" height="27" viewBox="0 0 23 27" fill="none" xmlns="http://www.w3.org/2000/svg">
<path d="M2.63593 21.8203L2.05073 24.7463C2.02449 24.8776 2.12486 25 2.25869 25H21.3456C21.4283 25 21.4929 24.9286 21.4846 24.8463L21.2856 22.8556C21.0987 20.9875 20.4045 19.2061 19.2781 17.7041L19.0593 17.4125C18.3605 16.4807 17.4783 15.7019 16.4671 15.124C15.178 14.3874 13.7191 14 12.2344 14H12H11.5403C10.1985 14 8.8752 14.3124 7.67509 14.9125C6.25265 15.6237 5.05401 16.7136 4.21114 18.0622L3.98388 18.4258C3.33334 19.4667 2.87665 20.6167 2.63593 21.8203Z" stroke="#F6A405" stroke-width="3"/>
<path d="M16.5719 4.40066C18.2439 6.74143 17.933 9.96903 15.8345 11.9364C13.465 14.1578 9.71377 13.9586 7.57506 11.5144C5.78821 9.47224 5.66482 6.4469 7.29292 4.2761C9.62343 1.16877 14.3143 1.23997 16.5719 4.40066Z" stroke="#F6A405" stroke-width="3"/>
</svg>
