<svg width="28" height="29" viewBox="0 0 28 29" fill="none" xmlns="http://www.w3.org/2000/svg">
<path d="M25.4087 28.5291C25.977 29.1318 26.9264 29.1597 27.5291 28.5913C28.1318 28.023 28.1597 27.0736 27.5913 26.4709L25.4087 28.5291ZM20.9137 22.8823L19.9001 21.7766L20.9137 22.8823ZM4.85178 6.37939L3.72828 5.38553L4.85178 6.37939ZM21.8213 6.03366L20.7392 7.07246L21.8213 6.03366ZM3.72828 5.38553L3.38623 5.7722L5.63322 7.75992L5.97527 7.37326L3.72828 5.38553ZM23.1666 5.26907L22.9033 4.99486L20.7392 7.07246L21.0024 7.34667L23.1666 5.26907ZM21.9273 23.988L22.5881 23.3823L20.5609 21.1709L19.9001 21.7766L21.9273 23.988ZM20.4831 23.3057L25.4087 28.5291L27.5913 26.4709L22.6658 21.2475L20.4831 23.3057ZM21.0024 7.34667C24.7611 11.262 24.5618 17.5034 20.5609 21.1709L22.5881 23.3823C27.8303 18.577 28.0915 10.3992 23.1666 5.26907L21.0024 7.34667ZM4.35872 24.0053C9.3359 28.5497 16.9591 28.5422 21.9273 23.988L19.9001 21.7766C16.0772 25.2809 10.2113 25.2867 6.38153 21.7899L4.35872 24.0053ZM3.38623 5.7722C-1.32305 11.0957 -0.890096 19.2129 4.35872 24.0053L6.38153 21.7899C2.34269 18.1022 2.00955 11.8562 5.63322 7.75992L3.38623 5.7722ZM5.97527 7.37326C9.86323 2.97818 16.6754 2.83939 20.7392 7.07246L22.9033 4.99486C17.6254 -0.502962 8.77788 -0.322711 3.72828 5.38553L5.97527 7.37326Z" fill="#F6A405"/>
</svg>
