<svg width="20" height="20" viewBox="0 0 20 17" fill="none" xmlns="http://www.w3.org/2000/svg">
<path d="M4.33203 9.2431L6.64566 15.5961C6.64566 15.5961 6.93492 16.1906 7.24466 16.1906C7.5544 16.1906 12.1613 11.4359 12.1613 11.4359L17.2844 1.61914L4.41459 7.60316L4.33203 9.2431Z" fill="#C8DAEA"/>
<path d="M7.9274 10.5234L7.57646 15.5109C7.57646 15.5109 7.42956 17.0391 8.57215 15.5109C9.71474 13.9827 10.8084 12.8042 10.8084 12.8042" fill="#A9C6D8"/>
<path d="M5.06191 9.90907L0.674186 8.39261C0.674186 8.39261 0.149805 8.16694 0.318655 7.6552C0.353414 7.54967 0.423532 7.45988 0.633284 7.30556C1.60549 6.58675 18.628 0.0967478 18.628 0.0967478C18.628 0.0967478 19.1086 -0.0750495 19.3921 0.0392172C19.4622 0.0622433 19.5253 0.104616 19.5749 0.161998C19.6245 0.219381 19.6589 0.289715 19.6745 0.365807C19.7051 0.500205 19.7179 0.638476 19.7125 0.776627C19.7112 0.896138 19.6975 1.00691 19.6872 1.18061C19.5835 2.95501 16.481 16.1979 16.481 16.1979C16.481 16.1979 16.2954 16.9728 15.6303 16.9993C15.4669 17.0049 15.304 16.9756 15.1515 16.913C14.999 16.8504 14.8599 16.7559 14.7426 16.6351C13.4375 15.4442 8.9266 12.2286 7.92983 11.5214C7.90734 11.5051 7.88841 11.4839 7.8743 11.4593C7.86019 11.4346 7.85123 11.407 7.84802 11.3783C7.83409 11.3038 7.9105 11.2115 7.9105 11.2115C7.9105 11.2115 15.7651 3.80557 15.9741 3.02811C15.9903 2.96788 15.9292 2.93816 15.8471 2.96454C15.3254 3.16812 6.28177 9.22617 5.28365 9.89476C5.2118 9.91782 5.13586 9.92272 5.06191 9.90907Z" fill="white"/>
</svg>
