<svg width="30" height="30" viewBox="0 0 30 30" fill="none" xmlns="http://www.w3.org/2000/svg">
<path fill-rule="evenodd" clip-rule="evenodd" d="M2.63238 23.2906L2.27768 22.7297C0.78613 20.3689 -0.00108264 17.6405 1.11749e-06 14.8392C0.00325753 6.6643 6.68634 0.0129395 14.9041 0.0129395C18.8837 0.0144825 22.6238 1.55899 25.4371 4.36124C28.2501 7.1637 29.798 10.8892 29.7969 14.8509C29.7933 23.0263 23.1101 29.6782 14.8985 29.6782H14.8926C12.2189 29.6766 9.59669 28.9621 7.30987 27.6112L6.7656 27.29L1.12657 28.7618L2.63238 23.2906ZM10.6078 8.00856C10.8533 8.01944 11.1248 8.03182 11.3829 8.65035L11.3827 8.65024C11.5588 9.07257 11.855 9.85939 12.0914 10.4872C12.266 10.9511 12.408 11.3282 12.4446 11.4071C12.5307 11.5929 12.5881 11.8098 12.4732 12.0577C12.4559 12.0949 12.44 12.13 12.4248 12.1635C12.3386 12.3533 12.2752 12.4928 12.1292 12.6771C12.0716 12.7495 12.0122 12.8275 11.9527 12.9055C11.834 13.0611 11.7154 13.2167 11.6123 13.3275C11.4396 13.5127 11.2602 13.7139 11.461 14.0853C11.6621 14.4571 12.3534 15.6728 13.3774 16.6573C14.4773 17.7146 15.4329 18.1619 15.9182 18.3892C16.0136 18.4338 16.0909 18.47 16.1474 18.5006C16.4919 18.6863 16.6929 18.6554 16.8938 18.4072C17.0948 18.1594 17.7545 17.3231 17.9841 16.9517C18.2139 16.5799 18.4436 16.6417 18.7594 16.7655C19.0751 16.8895 20.7685 17.788 21.1131 17.9738C21.1801 18.0099 21.2428 18.0425 21.3009 18.0728C21.5415 18.1979 21.704 18.2825 21.7734 18.4072C21.8594 18.5624 21.8594 19.3057 21.5723 20.1729C21.2854 21.0402 19.8789 21.8765 19.2474 21.9383C19.1867 21.9443 19.1263 21.952 19.0642 21.9598C18.4805 22.0339 17.7439 22.1275 15.1139 21.0092C11.8788 19.6336 9.74534 16.2246 9.30411 15.5196C9.26786 15.4617 9.24303 15.422 9.22995 15.4032L9.22588 15.3973C9.03942 15.1285 7.82349 13.3756 7.82349 11.562C7.82349 9.8515 8.60324 8.9549 8.96198 8.54241C8.98648 8.51424 9.00901 8.48833 9.0292 8.46457C9.34476 8.09291 9.71793 7.99995 9.94769 7.99995C9.96096 7.99995 9.97422 7.99995 9.98748 7.99994C10.2036 7.99991 10.4185 7.99988 10.6078 8.00856Z" fill="url(#paint0_linear_4_5451)"/>
<defs>
<linearGradient id="paint0_linear_4_5451" x1="14.4848" y1="28.8513" x2="14.4848" y2="1.65815" gradientUnits="userSpaceOnUse">
<stop stop-color="#20B038"/>
<stop offset="1" stop-color="#60D66A"/>
</linearGradient>
</defs>
</svg>
