<svg width="30" height="30" viewBox="0 0 30 30" fill="none" xmlns="http://www.w3.org/2000/svg">
<path d="M2.27768 22.7168L2.63238 23.2776L1.12657 28.7489L6.7656 27.277L7.30987 27.5982C9.59669 28.9492 12.2189 29.6637 14.8926 29.6652H14.8985C23.1101 29.6652 29.7933 23.0134 29.7969 14.8379C29.798 10.8762 28.2501 7.15076 25.4371 4.3483C22.6238 1.54605 18.8837 0.00154305 14.9041 0C6.68634 0 0.00325625 6.65136 1.12015e-06 14.8263C-0.00108392 17.6276 0.786129 20.356 2.27768 22.7168Z" fill="url(#paint0_linear_140_539)"/>
<path fill-rule="evenodd" clip-rule="evenodd" d="M11.5594 8.65041C11.3013 8.03188 11.0298 8.0195 10.7843 8.00862C10.5834 7.99941 10.3537 8.00001 10.1242 8.00001C9.89444 8.00001 9.52127 8.09297 9.20571 8.46463C8.88988 8.83632 8 9.73477 8 11.562C8 13.3895 9.23448 15.1552 9.40647 15.4033C9.57875 15.6508 11.7895 19.5207 15.2904 21.0093C18.2002 22.2465 18.7923 22.0004 19.4239 21.9384C20.0554 21.8766 21.4619 21.0402 21.7488 20.173C22.0359 19.3058 22.0359 18.5624 21.9499 18.4072C21.8638 18.2524 21.634 18.1595 21.2896 17.9739C20.945 17.7881 19.2516 16.8895 18.9359 16.7656C18.6201 16.6418 18.3904 16.5799 18.1607 16.9518C17.931 17.3232 17.2713 18.1595 17.0703 18.4072C16.8694 18.6554 16.6684 18.6864 16.324 18.5006C15.9794 18.3143 14.87 17.9225 13.5539 16.6573C12.5299 15.6729 11.8386 14.4572 11.6376 14.0853C11.4367 13.7139 11.6161 13.5128 11.7888 13.3276C11.9436 13.1612 12.1334 12.8939 12.3057 12.6772C12.4775 12.4603 12.5349 12.3055 12.6497 12.0577C12.7647 11.8098 12.7072 11.5929 12.6211 11.4072C12.5349 11.2214 11.8655 9.38473 11.5592 8.6503" fill="white"/>
<defs>
<linearGradient id="paint0_linear_140_539" x1="14.4848" y1="28.8384" x2="14.4848" y2="1.64521" gradientUnits="userSpaceOnUse">
<stop stop-color="#20B038"/>
<stop offset="1" stop-color="#60D66A"/>
</linearGradient>
</defs>
</svg>
